<?xml version="1.0" standalone="no"?>
<!DOCTYPE svg PUBLIC "-//W3C//DTD SVG 20010904//EN"
 "http://www.w3.org/TR/2001/REC-SVG-20010904/DTD/svg10.dtd">
<svg version="1.0" xmlns="http://www.w3.org/2000/svg"
 width="512.000000pt" height="512.000000pt" viewBox="0 0 512.000000 512.000000"
 preserveAspectRatio="xMidYMid meet">
<metadata>
Created by potrace 1.14, written by Peter Selinger 2001-2017
</metadata>
<g transform="translate(0.000000,512.000000) scale(0.100000,-0.100000)"
fill="#000000" stroke="none">
<path d="M2833 4960 c-68 -34 -98 -67 -161 -176 -56 -97 -115 -174 -160 -208
-20 -15 -78 -47 -128 -71 -99 -46 -158 -96 -189 -160 -26 -56 -31 -142 -11
-203 20 -59 83 -135 134 -161 l36 -18 -65 -31 c-35 -16 -110 -44 -166 -61
-149 -46 -224 -111 -274 -238 -19 -48 -23 -78 -24 -169 l0 -110 -30 17 c-45
27 -209 78 -272 86 -48 5 -62 12 -102 51 -170 164 -355 247 -421 187 -49 -44
-67 -144 -50 -283 l12 -93 -39 -42 c-21 -23 -50 -58 -64 -77 -26 -34 -26 -34
-52 -17 -39 25 -170 67 -212 67 -92 0 -109 -38 -102 -234 5 -151 14 -205 57
-318 28 -77 109 -199 175 -264 42 -42 55 -64 65 -106 45 -184 142 -324 270
-388 25 -12 47 -24 49 -26 2 -2 -13 -26 -33 -53 -55 -75 -162 -169 -296 -261
-265 -182 -396 -383 -417 -642 -6 -76 -6 -77 -37 -84 -99 -21 -195 -108 -216
-196 -15 -60 -7 -192 17 -270 22 -77 78 -127 179 -160 236 -78 513 -77 626 3
23 17 46 19 206 19 159 0 182 2 202 18 22 18 23 18 47 -4 36 -34 108 -55 203
-61 101 -7 185 9 235 43 40 27 81 30 167 13 44 -9 61 -8 83 2 41 20 66 60 72
113 8 64 -18 126 -78 186 l-49 49 19 113 c35 204 43 335 42 686 -1 486 -25
666 -109 841 -17 34 -19 47 -10 66 l11 24 40 -45 c48 -54 86 -75 141 -77 55
-2 104 19 121 54 16 31 19 151 6 231 l-8 47 30 -21 c16 -12 36 -37 43 -57 8
-20 26 -61 40 -92 l26 -55 -21 -69 c-52 -166 -65 -377 -35 -535 17 -93 62
-224 95 -279 21 -33 24 -62 43 -413 l20 -377 -51 -53 c-64 -69 -83 -105 -83
-163 0 -95 45 -131 189 -148 60 -8 96 -18 119 -34 19 -12 50 -25 70 -29 49 -9
347 3 402 16 58 14 75 31 90 88 l12 47 13 -38 c18 -52 79 -123 112 -131 58
-14 539 -19 636 -7 193 24 308 83 378 191 31 48 33 49 73 44 56 -8 150 11 216
43 32 15 84 56 126 97 57 57 80 90 117 166 52 108 81 229 71 297 -13 90 -78
139 -126 96 -12 -10 -41 -61 -66 -113 -85 -179 -129 -229 -214 -245 -69 -13
-73 -8 -75 112 -5 272 -114 495 -432 883 -56 69 -129 164 -162 212 -69 100
-147 256 -156 311 -9 56 20 113 71 139 131 66 248 179 299 285 30 64 32 75 32
180 l0 111 35 16 c52 23 99 73 129 136 25 53 26 61 26 255 0 195 1 203 34 335
30 117 35 151 35 255 0 103 -4 129 -25 185 -93 244 -277 338 -502 256 -42 -15
-80 -32 -83 -37 -3 -5 -33 16 -67 47 -79 71 -229 147 -336 170 -79 17 -79 17
-92 57 -19 58 -78 145 -129 191 -64 58 -140 89 -230 94 -68 3 -80 1 -137 -28z
m249 -67 c67 -30 149 -110 178 -175 l19 -43 -86 -8 c-81 -8 -87 -7 -110 15
-20 19 -36 23 -82 23 -67 -1 -89 -13 -228 -125 -53 -44 -144 -105 -201 -137
-175 -95 -229 -149 -247 -245 -7 -38 19 -113 53 -152 16 -18 16 -19 -12 -12
-90 22 -159 145 -135 241 18 70 68 116 196 180 135 67 189 121 291 290 74 121
117 160 192 173 60 11 103 5 172 -25z m310 -308 c122 -25 250 -88 338 -164
l41 -36 -35 -70 c-43 -84 -47 -113 -8 -59 94 129 274 201 409 165 91 -25 182
-127 222 -249 33 -99 29 -203 -16 -386 -35 -140 -38 -163 -38 -306 -1 -85 -2
-161 -3 -168 -3 -21 -65 -52 -103 -52 -58 0 -118 39 -177 116 -66 86 -246 444
-246 490 0 51 61 163 122 221 56 54 65 85 26 91 -14 2 -38 -15 -76 -56 -61
-64 -96 -126 -123 -217 -10 -33 -29 -96 -42 -140 -37 -118 -42 -264 -14 -375
27 -107 77 -210 136 -277 l46 -52 -26 -62 c-127 -313 -466 -513 -796 -469
-110 14 -251 52 -341 90 -82 35 -204 108 -232 139 -18 20 -18 21 13 56 47 53
89 144 117 252 13 53 23 97 21 100 -3 2 -47 -6 -98 -17 -102 -23 -136 -21
-189 11 l-35 22 47 12 c124 31 180 142 127 253 -30 61 -143 172 -208 205 -102
50 -198 31 -236 -49 -14 -30 -17 -52 -12 -113 3 -42 11 -91 18 -109 6 -18 9
-35 7 -37 -2 -3 -21 7 -41 22 -42 30 -72 86 -87 162 -12 65 6 114 66 180 45
50 83 71 184 101 41 12 104 35 139 51 76 35 94 36 122 8 18 -18 20 -28 15 -73
-5 -40 -4 -56 7 -65 12 -9 18 -8 31 4 33 34 13 184 -26 197 -8 3 3 23 29 54
22 27 67 101 98 164 99 199 181 294 315 364 58 31 168 67 240 79 58 10 210 6
272 -8z m-2232 -966 c36 -17 99 -56 140 -87 l75 -57 -33 -3 c-25 -3 -46 6 -90
36 -78 53 -116 72 -146 72 -33 0 -40 -25 -32 -114 l7 -71 -32 -18 c-17 -10
-34 -15 -37 -12 -3 3 -6 56 -6 118 -1 174 25 197 154 136z m465 -253 c316 -94
473 -308 435 -590 -30 -217 -144 -441 -309 -607 -42 -42 -89 -86 -105 -98 -16
-11 -27 -23 -24 -26 9 -9 165 114 221 174 43 47 58 57 66 47 20 -23 59 -140
83 -246 21 -96 23 -128 23 -375 0 -216 -4 -292 -18 -380 -33 -195 -89 -354
-158 -450 -31 -43 -76 -81 -85 -72 -3 2 -14 114 -25 248 -10 134 -22 254 -24
266 -6 26 -40 32 -48 9 -3 -7 7 -164 22 -348 l27 -335 37 -33 c88 -76 109
-192 45 -234 -89 -58 -369 -24 -382 47 -2 12 -9 47 -16 77 -27 130 -59 383
-59 478 -1 67 -8 131 -20 180 -11 43 -23 116 -26 163 -8 97 -14 113 -41 107
-16 -3 -19 -12 -16 -54 l2 -51 -41 38 c-58 54 -123 83 -194 87 -75 5 -124 -8
-195 -50 -43 -26 -55 -39 -55 -58 0 -34 25 -36 71 -5 117 79 261 62 357 -44
59 -65 68 -92 85 -257 15 -144 15 -159 -2 -226 -9 -40 -25 -91 -35 -113 -17
-37 -24 -42 -78 -58 -33 -9 -71 -25 -84 -36 l-24 -19 42 11 c74 19 234 -27
247 -72 15 -52 16 -87 2 -106 -13 -18 -28 -20 -173 -23 l-158 -3 3 45 c7 87
-45 186 -134 254 -91 71 -256 111 -382 94 l-61 -9 -7 55 c-17 138 18 330 82
452 70 135 145 208 365 360 116 80 246 208 289 283 l32 57 52 0 c52 0 153 24
170 40 4 5 -11 4 -35 -2 -68 -15 -175 -4 -254 28 -133 53 -227 181 -275 374
-29 115 -37 336 -17 440 l15 75 -31 58 c-52 98 -169 184 -222 163 -15 -5 -16
-15 -10 -64 14 -117 65 -233 148 -337 20 -25 25 -45 30 -120 l6 -90 -35 40
c-118 136 -184 333 -184 551 0 87 20 119 68 108 64 -14 131 -38 179 -65 29
-16 57 -29 62 -29 6 0 26 25 47 55 74 112 201 203 334 240 87 24 281 14 395
-19z m2483 -353 c16 -32 21 -105 10 -162 -29 -158 -158 -282 -398 -383 -129
-54 -146 -55 -40 -1 196 100 320 203 365 306 23 50 29 81 33 159 5 96 12 116
30 81z m-1888 -32 c0 -5 -22 -28 -50 -51 -47 -40 -50 -41 -50 -18 0 14 13 34
32 50 32 27 68 37 68 19z m325 -642 c30 -45 54 -83 52 -85 -5 -6 -125 117
-147 151 -27 41 -25 48 9 30 16 -8 55 -51 86 -96z m-26 -101 c101 -93 262
-172 416 -205 96 -21 293 -12 394 17 130 37 258 109 353 198 34 32 38 34 44
16 61 -169 151 -313 328 -524 135 -161 234 -302 294 -419 80 -153 112 -265
118 -401 l4 -105 -19 80 c-11 44 -27 100 -36 125 -16 45 -82 150 -94 150 -3 0
-22 -28 -41 -61 -85 -150 -224 -290 -346 -350 -92 -45 -171 -56 -264 -35 -141
31 -227 86 -281 180 -33 58 -35 92 -14 184 49 209 218 391 420 453 70 22 76
26 73 49 -3 23 -7 25 -46 23 -25 -1 -79 -18 -130 -42 -172 -78 -243 -84 -256
-20 -4 19 -12 29 -24 29 -21 0 -113 -116 -136 -170 -8 -19 -30 -126 -50 -236
-48 -270 -102 -533 -127 -624 -23 -84 -45 -114 -98 -132 -53 -17 -238 -14
-285 6 -35 14 -38 19 -31 43 9 39 48 87 89 113 42 25 43 29 56 150 11 104 12
625 2 760 -6 72 -10 85 -26 88 -30 6 -36 -17 -29 -112 l6 -89 -33 19 c-48 27
-150 130 -197 200 -48 71 -104 180 -137 268 -23 60 -24 71 -16 159 9 90 47
267 57 267 3 0 31 -24 62 -52z m156 -1067 c6 -9 11 -122 13 -263 4 -234 3
-249 -18 -295 -52 -118 -108 -162 -179 -143 -22 6 -43 15 -46 20 -3 5 23 41
59 79 77 82 72 39 51 401 -8 140 -15 277 -15 304 l0 49 63 -68 c34 -37 67 -75
72 -84z m2271 -121 c4 -23 3 -31 -4 -22 -7 10 -11 5 -16 -19 -11 -59 -84 -194
-131 -247 -61 -67 -156 -116 -230 -116 -29 -1 -56 1 -58 4 -3 3 -2 21 2 40 7
35 7 35 72 41 126 11 178 61 279 273 44 93 54 106 66 95 7 -8 16 -30 20 -49z
m-2940 -143 c-8 -72 -23 -172 -33 -221 l-17 -88 47 -42 c27 -22 57 -54 67 -71
36 -55 20 -145 -25 -145 -8 0 -48 5 -90 11 l-75 11 0 42 c0 51 -46 150 -89
190 -38 37 -40 68 -5 87 73 38 170 194 211 337 25 86 28 50 9 -111z m-1644
-157 c1 -33 0 -60 -3 -60 -14 0 -86 -71 -103 -101 l-19 -34 29 27 c39 36 84
54 177 68 146 24 288 -4 391 -77 65 -46 99 -102 104 -172 4 -54 2 -59 -28 -84
-86 -73 -299 -83 -524 -26 -183 47 -226 103 -226 295 0 112 34 166 132 209 60
26 66 22 70 -45z m3019 -139 c10 -29 10 -36 -1 -39 -7 -3 -33 -23 -57 -45 -24
-22 -43 -36 -43 -31 0 5 10 69 22 143 l21 133 23 -63 c12 -35 28 -80 35 -98z
m-2076 -49 c-2 -2 -12 1 -23 7 -20 11 -20 12 -4 53 l17 43 7 -50 c4 -27 5 -51
3 -53z m2440 -43 c48 -15 115 -57 115 -73 0 -1 -33 2 -72 7 -141 17 -408 -9
-442 -44 -16 -15 -26 -10 -26 11 0 43 93 105 179 120 62 11 173 2 246 -21z"/>
<path d="M2951 3559 c-40 -16 -81 -49 -96 -79 -13 -26 -13 -30 1 -45 15 -14
19 -13 54 19 76 68 149 68 209 1 38 -44 47 -92 29 -147 -17 -50 -14 -68 13
-68 46 0 66 147 30 218 -46 90 -154 136 -240 101z"/>
<path d="M1581 3184 c-24 -30 -28 -97 -9 -139 16 -35 28 -31 28 10 0 20 6 51
14 70 13 30 21 36 57 41 l42 7 -22 19 c-35 27 -85 24 -110 -8z"/>
<path d="M1533 2888 c-60 -62 -50 -116 19 -105 91 14 76 -89 -17 -121 l-30
-10 30 -11 c42 -17 92 4 116 48 10 18 31 42 48 52 16 10 35 27 40 38 14 25 14
101 1 121 -8 12 -10 9 -10 -13 0 -41 -27 -86 -55 -93 -36 -9 -55 11 -55 60 0
72 -36 86 -87 34z"/>
<path d="M1187 2749 c-24 -14 -57 -85 -57 -124 0 -16 10 -50 22 -75 l22 -45 6
77 c8 98 30 128 97 128 50 0 54 9 14 33 -33 19 -77 22 -104 6z"/>
<path d="M1159 4911 c-122 -49 -210 -147 -260 -291 -31 -91 -32 -237 -2 -335
26 -83 83 -176 138 -224 22 -19 69 -48 105 -65 56 -26 76 -31 145 -30 67 0 91
5 144 29 l64 29 85 -23 c118 -31 121 -27 88 105 l-25 99 24 70 c44 127 31 304
-31 427 -36 72 -123 159 -191 194 -49 25 -71 29 -148 32 -69 1 -101 -2 -136
-17z m258 -77 c59 -28 128 -94 161 -153 21 -38 19 -36 -40 23 -75 75 -148 107
-244 108 -123 1 -226 -58 -303 -172 -43 -64 -47 -53 -9 25 87 174 275 247 435
169z m-159 -260 c21 -14 25 -14 47 0 67 44 136 -12 122 -99 -6 -39 -122 -185
-147 -184 -15 0 -117 115 -140 158 -28 53 16 141 70 141 14 0 36 -7 48 -16z"/>
</g>
</svg>
